<?xml version="1.0" encoding="UTF-8"?>
<!DOCTYPE svg PUBLIC "-//W3C//DTD SVG 1.1//EN" "http://www.w3.org/Graphics/SVG/1.1/DTD/svg11.dtd">
<!-- Creator: CorelDRAW -->
<svg xmlns="http://www.w3.org/2000/svg" xml:space="preserve" width="974px" height="200px" version="1.1" style="shape-rendering:geometricPrecision; text-rendering:geometricPrecision; image-rendering:optimizeQuality; fill-rule:evenodd; clip-rule:evenodd"
viewBox="0 0 360.58 74.04"
 xmlns:xlink="http://www.w3.org/1999/xlink"
 xmlns:xodm="http://www.corel.com/coreldraw/odm/2003">
 <defs>
  <style type="text/css">
   <![CDATA[
    .fil0 {fill:black}
   ]]>
  </style>
 </defs>
 <g id="Camada_x0020_1">
  <metadata id="CorelCorpID_0Corel-Layer"/>
  <path class="fil0" d="M190.65 61.45l-5.55 0 0 -23.69c1.59,-0.13 2.52,-0.95 4.23,-1.32 11.43,-2.47 9.47,6.14 9.47,16.13 0,6.23 -1.89,8.88 -8.15,8.88zm-111.43 -14.43c0,8.18 0.12,15.66 5.08,20.83 3.94,4.1 9.71,5.82 15.7,6.19l5.2 0c1.8,-0.1 3.58,-0.3 5.29,-0.57 2.39,-0.38 4.76,-1.11 6.86,-1.28l0 -12.59c-7.79,0.65 -5.33,1.48 -17.03,1.48 -3.29,0 -5.55,-2.25 -5.55,-5.55 0,-3.97 -0.56,-14.16 0.72,-16.68 2.11,-4.17 11.39,-2.76 15.22,-2.22 2.26,0.32 4.57,0.65 6.64,1.13l0 -12.59c-10.59,-2.46 -25.23,-4.04 -33.23,4.53 -3.66,3.92 -4.9,9.84 -4.9,17.32zm-71.82 -31.1l0 8.14 -7.4 0 0 12.59 7.4 0 0 36.65 15.55 0 0 -36.65 10 0c0,-4.09 1.11,-8.1 1.11,-12.59l-11.11 0c0,-12.02 -1.6,-11.47 11.11,-11.47l0 -12.59 -11.23 0c-8.34,0.49 -15.43,3.24 -15.43,15.92zm40.73 43.68c0,-4.73 1.27,-3.7 11.1,-3.7 0,5.88 0.53,5.18 -2.58,6.3 -2.44,0.89 -8.52,2.03 -8.52,-2.6zm0.94 14.44l-2.98 0c-7.57,-0.53 -13.51,-5.28 -13.51,-15.18 0,-15.83 15.79,-13.33 26.65,-13.33 0,-3.12 0.46,-6.85 -2.34,-8.02 -3.07,-1.28 -15.26,-0.86 -19.13,-0.86 0,-4.09 1.11,-8.28 1.11,-12.59l18.51 0c4.89,0 10.05,1.63 12.69,3.98 2.68,2.38 4.34,6.96 4.34,11.94l0 33.69 -12.59 0c-0.3,-1.31 -0.37,-1.22 -0.37,-2.96 -1.56,0.13 -4.74,1.72 -6.61,2.27 -1.95,0.58 -3.89,0.93 -5.77,1.06zm192.67 -12.96c-10.02,0 -8.14,-3.46 -8.14,-19.25 0,-7.49 13.69,-8.75 13.69,1.11 0,4.24 0.71,13.49 -1.24,16.16 -0.82,1.11 -2.48,1.98 -4.31,1.98zm1.5 12.96l-4.91 0c-6.06,-0.44 -11.72,-2.49 -14.83,-5.45 -6.03,-5.75 -5.45,-14.32 -5.45,-23.06 0,-5.9 0.85,-12.2 4.9,-16.2 2.32,-2.28 3.02,-2.99 6.41,-4.32 7.95,-3.14 21.69,-2.34 27.66,3.39 6.94,6.66 5.45,16.21 5.45,26.76 0,12.79 -9.39,18.14 -19.23,18.88zm47 -12.96c-10.1,0 -8.15,-3.51 -8.15,-19.99 0,-6.02 13.7,-8.27 13.7,1.85 0,4.24 0.7,13.49 -1.25,16.16 -0.81,1.11 -2.47,1.98 -4.3,1.98zm-23.7 -16.29l0 7.78c0,14.86 7.77,21.47 22.59,21.47 11.65,0 21.84,-5.34 21.84,-18.88 0,-10.48 1.48,-20.33 -5.64,-26.94 -7.23,-6.71 -26.64,-6.85 -33.8,0.83 -3.42,3.66 -4.99,8.87 -4.99,15.74zm-129.57 -2.96c0,-6.23 2.61,-7.03 7.04,-7.03 5.08,0 5.55,3.9 5.55,8.14l-12.59 0 0 -1.11zm10.73 32.21l-2.05 0c-6.94,-0.02 -12.06,-0.35 -17.99,-5.12 -7.43,-5.97 -5.86,-19.02 -5.86,-27.46 0,-6.09 2.12,-10.14 5.26,-13.24 5.08,-5.01 12.36,-4.9 18.8,-4.9 11.07,0 18.88,7 18.88,18.14l0 11.85 -27.77 0c0,9.12 4.61,7.77 13.7,7.77 5.12,0 8.61,-1.12 12.96,-1.48l0 12.59c-3.21,0.07 -7.61,1.85 -15.55,1.85l-0.38 0zm167.34 -70.34l0 69.6 15.55 0 0 -22.21c0.88,0.64 13.01,20.83 13.33,22.21l16.66 0c-0.24,-0.88 -1.09,-2.28 -1.64,-3.18l-13.17 -21.99 11.03 -17.85c0.87,-1.38 3.45,-4.99 3.78,-6.22l-16.66 0c-0.19,0.69 -12.33,20.37 -13.33,21.1l0 -44.05c-3.98,0.33 -11.52,2.26 -15.55,2.59zm-123.02 70.34l-5.3 0c-4.75,-0.16 -9.35,-0.71 -12.94,-1.27 -1.54,-0.24 -2.67,-0.58 -4.23,-0.58l0 -68.49c2.35,-0.19 5.37,-0.89 7.93,-1.32 2.5,-0.42 5.35,-1.08 7.62,-1.27l0 23.69c1.38,-0.11 2.54,-0.65 4.23,-0.95 8.53,-1.52 20.73,-1.22 23.68,8.21 1.56,5.01 0.97,17.11 0.97,23.1 0,6.81 -2.09,11.65 -6.07,14.66 -3.78,2.86 -9.7,3.99 -15.89,4.22z"/>
 </g>
</svg>
