<?xml version="1.0" encoding="UTF-8"?>
<!DOCTYPE svg PUBLIC "-//W3C//DTD SVG 1.1//EN" "http://www.w3.org/Graphics/SVG/1.1/DTD/svg11.dtd">
<!-- Creator: CorelDRAW -->
<svg xmlns="http://www.w3.org/2000/svg" xml:space="preserve" width="637px" height="199px" version="1.1" style="shape-rendering:geometricPrecision; text-rendering:geometricPrecision; image-rendering:optimizeQuality; fill-rule:evenodd; clip-rule:evenodd"
viewBox="0 0 190.8 59.56"
 xmlns:xlink="http://www.w3.org/1999/xlink"
 xmlns:xodm="http://www.corel.com/coreldraw/odm/2003">
 <defs>
  <style type="text/css">
   <![CDATA[
    .fil0 {fill:black}
   ]]>
  </style>
 </defs>
 <g id="Camada_x0020_1">
  <metadata id="CorelCorpID_0Corel-Layer"/>
  <path class="fil0" d="M149.16 52.31c-1.71,0 -3.89,-0.38 -3.89,-2.69l0 -22.12c0,-3.62 6.76,-7.88 7.18,1.49 0.27,5.82 0.55,12.06 -0.04,17.9 -0.23,2.24 -0.76,5.42 -3.25,5.42zm-68.15 -42.45l8.97 0 0 48.73 9.26 0 0 -48.73 9.27 0 0 -7.77 -27.5 0 0 7.77zm97.45 13.16c4.23,0 3.28,7.7 3.28,12.55l-6.57 0c0,-2.84 0.31,-5.02 0.29,-7.48 -0.01,-2.55 0.53,-5.07 3,-5.07zm-12.56 13.75c0,8.51 -0.42,19.38 8.13,22.06 5.82,1.83 16.38,0.13 16.38,-10.11l0 -2.39c-1.75,0 -6.65,-0.26 -8.07,-0.6 -0.02,1.07 -0.56,4.71 -0.89,5.39 -0.92,1.84 -5.98,4 -5.98,-3.59 0,-2.12 -0.3,-3.79 -0.3,-6.28l15.54 0c0,-7.96 1.28,-20.45 -5.93,-23.66 -5.13,-2.29 -13.9,-1.45 -16.7,4.62 -1.74,3.77 -2.18,9.15 -2.18,14.56zm-155.44 4.48l0 17.34 9.27 0 0 -16.74c0,-2.81 9.48,-34.25 10.76,-39.76l-9.27 0c-0.6,1.26 -1.22,4.94 -1.62,6.75 -0.82,3.74 -4.13,18.32 -4.36,21.05 -0.04,-0.06 -0.07,-0.25 -0.08,-0.21l-1.35 -6.72c-0.54,-2.28 -1.03,-4.79 -1.48,-6.89l-3.06 -13.98 -9.27 0c0.23,2.78 10.46,36.41 10.46,39.16zm30.19 11.66c-3.15,0 -3.28,-5.63 -3.28,-8.97l0 -11.66c0,-3.49 0.25,-10.05 4.01,-9.11 3.89,0.97 2.86,14.36 2.86,18.68 0,2.47 -0.1,4.47 -0.33,6.84 -0.19,1.89 -1.17,4.22 -3.26,4.22zm-12.85 -17.64c0,7.3 -0.84,18.43 5.61,22.49 3.6,2.27 13.21,2.7 16.78,-1.9 4.47,-5.77 3.32,-15.75 3.32,-24.17 0,-8.43 -3.24,-15.25 -12.56,-15.25 -10.85,0 -13.15,8.03 -13.15,18.83zm30.49 14.95c0,11.34 11.52,10.93 15.39,5.82 0.64,-0.86 0.97,-1.74 1.65,-2.23 0,1.95 0.56,3.08 0.6,4.78l7.47 0 0 -41.25c-11.78,0 -9.57,-2.03 -9.57,8.96 0,2.89 0.35,23.33 -0.28,24.53 -0.65,1.25 -4.95,3.5 -5.63,-0.38 -0.72,-4.18 -0.36,-27.26 -0.36,-33.11l-9.27 0 0 32.88zm47.23 -1.8c0,3.02 0.53,5.94 1.72,7.85 0.68,1.08 1.39,1.75 2.47,2.31 4.28,2.24 9.34,0.54 12.35,-4.08 0.38,-0.57 0.1,-0.24 0.5,-0.69 0.14,1.71 0.59,2.68 0.59,4.78l7.78 0 0 -41.25 -9.57 0 0 31.98c0,2.75 -6.28,6.15 -6.28,-0.6l0 -31.38 -9.56 0 0 31.08zm30.49 -47.52l0 57.69 8.07 0c0.11,-1.29 0.57,-1.9 0.6,-3.29 2.04,0.54 1.25,3.89 9.26,3.89 6.38,0 8.07,-8.98 8.07,-14.05 0,-6.26 0.75,-19.4 -1.68,-24.33 -1.33,-2.69 -3.43,-4.37 -6.69,-4.37 -4.28,0 -6.36,2.48 -8.37,4.78l0 -21.22 -8.36 0 -0.04 0c-0.66,0.01 -0.86,0.22 -0.86,0.9z"/>
 </g>
</svg>
