<?xml version="1.0" encoding="UTF-8"?>
<!DOCTYPE svg PUBLIC "-//W3C//DTD SVG 1.1//EN" "http://www.w3.org/Graphics/SVG/1.1/DTD/svg11.dtd">
<!-- Creator: CorelDRAW -->
<svg xmlns="http://www.w3.org/2000/svg" xml:space="preserve" width="59.0799mm" height="16.8485mm" version="1.1" style="shape-rendering:geometricPrecision; text-rendering:geometricPrecision; image-rendering:optimizeQuality; fill-rule:evenodd; clip-rule:evenodd"
viewBox="0 0 2174.35 620.08"
 xmlns:xlink="http://www.w3.org/1999/xlink"
 xmlns:xodm="http://www.corel.com/coreldraw/odm/2003">
 <defs>
  <style type="text/css">
   <![CDATA[
    .fil0 {fill:black}
   ]]>
  </style>
 </defs>
 <g id="Camada_x0020_1">
  <metadata id="CorelCorpID_0Corel-Layer"/>
  <path class="fil0" d="M1199.67 592.04c-51.33,0 -27.92,-61.79 -2.45,-92.81 10.14,-12.34 35.38,-43.37 46.07,-50.52 0,51.33 3.01,143.34 -43.62,143.34zm-1199.67 -436.24l0 5.42c0.04,26.64 1.07,46.52 22.81,68.37 12.34,12.4 30.09,22.81 48.86,22.81 4.36,-18.72 -1.31,-16.5 -9.22,-31.28 -24.27,-45.36 -2.2,-147.92 46.62,-180.61 0,63.27 5.48,327.06 -6.41,383.1 -3.49,16.48 -9.17,26.6 -9.17,46.91 16.12,0 27.5,-5.27 39.69,-16.4 31.08,-28.39 38.22,-84.8 38.22,-130.05l0 -292.9c0,-23.99 -36.37,-31.16 -46.74,-31.16 -43.72,0 -124.64,91.66 -124.64,155.8zm1204.36 464.28l-11.55 0c-59.04,-3.82 -106.93,-65.9 -18.85,-153.47 13,-12.92 58.5,-58.65 69.33,-61.54l0 -21.81c-11.7,4.24 -0.41,-1.63 -8.87,6.71 -1.98,1.95 -3.42,4.11 -5.94,6.52 -4.46,4.24 -8.75,7.04 -14.46,10.47 -42.21,25.34 -94.61,11.01 -104.71,-26.81 -7.2,4.82 -46.78,73.46 -99.1,24.32 -9.86,-9.26 -13.02,-26.77 -22.42,-33.67 -12.03,45.07 -84.52,70.33 -124.42,27.82 -8.91,-9.49 -20.66,-26.94 -22.03,-43.4 -8.68,6.36 -7.67,10.18 -13.75,20.53 -39,66.31 -102.92,57.57 -122.82,-17.94 -2.02,-7.66 -1.9,-11.59 -3.42,-18.39 -3.25,-14.52 4.49,-4.22 -6.46,-12.24 -5.5,23.62 -25.95,46.05 -41.26,61.57 -53.39,54.15 -158.17,29.24 -158.17,3.86 0,-13.35 13.11,-37.39 24.93,-37.39 19.6,0 28.48,21.81 49.86,21.81 18.35,0 28.04,-16.88 28.04,-34.28 0,-29.35 -37.46,-66.45 -59.21,-81.02 -2.74,10.26 -20.38,36.53 -27.06,47.73 -21.96,36.82 -42.93,80.2 -80.15,103.69 -43.66,27.55 -67.29,-18.37 -67.29,-64.17l3.11 -155.8c-38.93,26.07 -69.97,123.02 -80.27,172.12 -5.76,27.48 -1.3,55.35 -25.67,55.35 -25.28,0 -40.51,-6.28 -40.51,-37.39l0 -227.47c0,-19.68 28.99,-11.41 38.76,-7.6 12.84,5 7.95,4.43 17.33,10.71l0 115.29 9.75 -21.41c2.27,-7.04 4.39,-12.51 7.57,-20.47 6.04,-15.1 10.67,-24.38 17.96,-38.13 46.07,-86.83 114.28,-40.82 114.28,-10.36l-3.22 93.38c-0.77,25.76 -5.47,65.06 9.45,87.35 19.43,-5.19 36.9,-41.14 47.36,-58.58 6.65,-11.1 13.25,-22.09 19.16,-33.82 6.53,-12.97 11.59,-20.86 17.61,-32.24 -7.92,-11.84 -15.58,-16.3 -15.58,-37.39 0,-48.91 66.21,-85.52 88.05,-53.63 18.34,26.79 -16.47,52.45 -22.61,75.44 8.41,12.56 42.77,32.3 56.94,45.89 22.72,21.81 30.32,29.65 30.32,72.51 57.7,-38.64 43.62,-147.66 43.62,-208.77 -17,0 -25.66,-1.43 -37.9,-2.61 -14.76,-1.41 -30.65,4.45 -30.65,-9.86 0,-14.96 5.12,-26.42 12.47,-37.39 18.47,4.31 39.72,3.12 59.21,3.12l0 -34.28c0,-17.93 -3.2,-52.29 18.45,-52.53 16.18,-0.18 39.56,11.19 50.1,18.25l-3.11 71.67c20.32,0 31.07,2.39 46.77,3.08 15.44,0.68 37.36,-3.36 37.36,12.49 0,39.54 -31.34,28.04 -87.25,28.04 0,54.46 -3.12,98.03 -3.12,152.68 0,39.57 -3.54,57.15 18.7,90.37 29.49,-6.87 45.78,-37.63 51.75,-66.67 7.73,-37.58 0.54,-138.13 69.69,-167.12 40.98,-17.18 56.77,5.6 81.1,21.9 0.77,-34.64 45.15,-12.53 59.21,-3.12 0,29.84 -3.12,47.59 -3.12,77.9l0 81.02c0,80.41 41.75,76.03 54.34,29.33 5.62,-20.83 -18.23,-137.65 47.64,-195.32 37.21,-32.58 65.12,-14.57 97.44,7.08 4.99,-9.44 6.6,-15.74 20.99,-14.93 51.86,2.92 38.15,22.79 38.21,58.55 0.07,45.7 0,91.41 0,137.11 11.14,-8.17 28.46,-44.57 36.36,-60.24 10.6,-21.01 20.28,-46.23 25.96,-70.63 -11.29,-16.86 -24.54,-21.68 -14.24,-51.55 6.68,-19.4 21.54,-29.47 42.29,-29.47 23.74,0 24.93,25.83 24.93,43.63 21.52,-1.79 38.76,-9.35 62.32,-9.35 56.55,0 18.41,65.24 15.42,127.8 -0.69,14.39 -3.05,90.32 25.09,90.32 48.69,0 28.04,-61.91 28.04,-90.36 0,-56.73 25.19,-155.8 93.48,-155.8 24.48,0 39.23,16.76 56.09,28.04 0.69,-30.96 40.95,-16.71 51.89,-8.18 11.94,9.32 4.2,20.39 4.2,36.22l0 137.1c0,65.79 35.48,69.66 56.57,12.94 6.34,-17.06 8.9,-114.11 8.87,-140.7 -0.06,-49.51 -6.84,-69.71 43.91,-53.26 13.93,4.51 12.49,7.48 12.41,24.99 -0.12,25 -0.23,49.99 -0.23,75.01 0.43,-0.62 0.92,-1.55 1.14,-1.97l10.15 -27.25c6.53,-19.68 18.45,-76.72 41.68,-76.72 33.71,0 53.34,15.16 53.1,49.73 -0.25,36.45 2.98,60.63 2.98,96.73 7.72,-11.11 8.41,-28.12 11.8,-41.18 3.75,-14.46 7.22,-26.82 11.91,-41.06 14.89,-45.23 20.69,-83.6 77.18,-52.93 26.8,14.55 17.52,50.8 17.52,107.12 0,45.61 -9.39,91.69 24.93,121.53 32.16,-17.01 19.69,-35.04 34.28,-65.44l15.58 0c17.11,73.43 -58.33,140.86 -104.79,79.86 -34.72,-45.58 -26.09,-119.77 -26.09,-179.57l-10.73 20.43c-15.42,39.28 -22.14,76.65 -28.04,118.41 -2.52,17.89 3.04,41.89 -14.2,41.89 -48.92,0 -50.58,-24.36 -56.1,-74.77 -4.05,-37.03 -6.22,-66.43 -6.22,-109.07 -12.28,8.22 -18.07,28.03 -23.8,44.76 -5.76,16.82 -11.75,34.89 -15.05,53.51 -3.19,18.01 -5.01,44.47 -4.78,63.77 0.28,24.15 2.3,43.62 -21.81,43.62 -13.08,0 -32.52,-0.19 -41.07,-8.79 -6.55,-6.59 -5.67,-16.06 -5.67,-28.61l-8.87 12.94c-8.7,11.55 -21.18,24.46 -37.87,24.46 -59.96,0 -50.57,-36.68 -68.55,-49.86 -5.94,22.26 -42.99,49.86 -71.67,49.86 -26.29,0 -56.13,-14.2 -62.32,-37.39 -13.34,3.56 -5.16,1.35 -13.51,11.41 -4.06,4.89 -7.66,8.69 -12.07,12.86 -29.6,27.94 -71.28,6.82 -90.26,-20.61 -30.54,-44.15 -16.57,-128.34 -5.68,-175.04l-43.63 0c-1.77,21.27 -36.82,86.68 -47.71,104.97l-46.64 65.54c-21.14,24.83 2.26,103.94 -18.87,168.09 -5.9,17.89 -13.84,34.21 -27.82,46.96 -15.6,14.24 -34.8,21.43 -53.69,22.64zm-17.15 -236.82c-46.52,0 -45.48,-160.26 -3.78,-190.76 32.24,-23.58 53.63,9.13 53.63,44.3 0,43.52 2.97,68.69 -11.96,109.57 -5.33,14.58 -20.31,36.88 -37.9,36.88zm-292.9 -71.67c0,-39.26 -0.98,-110.47 37.69,-124.64 63.25,-23.17 61.24,142.89 19.41,184.87 -34.24,34.37 -57.1,-16.52 -57.1,-60.23zm744.73 71.67c-44.23,0 -43.86,-147.01 -13.14,-184.51 20.93,-25.55 49.24,-17.49 59.39,19.85 5.51,20.29 4.15,45.05 3.68,64.81 -0.74,31.17 -12.12,99.85 -49.94,99.85z"/>
 </g>
</svg>
